<svg width="23" height="28" viewBox="0 0 23 28" fill="none" xmlns="http://www.w3.org/2000/svg">
<path d="M13.2168 2.15385C13.2168 0.9625 12.4293 0 11.4545 0C10.4798 0 9.69231 0.9625 9.69231 2.15385V11.8462H1.76224C0.7875 11.8462 0 12.8087 0 14C0 15.1913 0.7875 16.1538 1.76224 16.1538H9.69231V25.8462C9.69231 27.0375 10.4798 28 11.4545 28C12.4293 28 13.2168 27.0375 13.2168 25.8462V16.1538H21.1469C22.1216 16.1538 22.9091 15.1913 22.9091 14C22.9091 12.8087 22.1216 11.8462 21.1469 11.8462H13.2168V2.15385Z" fill="#215E02"/>
</svg>
