<svg width="28" height="28" viewBox="0 0 28 28" fill="none" xmlns="http://www.w3.org/2000/svg">
<path d="M9.92387 9.92387L9.92575 9.92197C10.2376 9.60675 10.7508 9.60401 11.0707 9.92387L13.641 12.4942L13.9945 12.8477L14.3481 12.4942L16.9184 9.92387L16.9203 9.92197C17.2298 9.60914 17.7444 9.60646 18.0671 9.92575C18.3823 10.2376 18.385 10.7508 18.0652 11.0707L15.4949 13.641L15.1413 13.9945L15.4949 14.3481L18.0652 16.9184L18.0671 16.9203C18.3799 17.2298 18.3826 17.7444 18.0633 18.0671C17.7514 18.3823 17.2382 18.385 16.9184 18.0652L14.3481 15.4949L13.9945 15.1413L13.641 15.4949L11.0707 18.0652L11.0688 18.0671C10.7593 18.3799 10.2447 18.3826 9.92197 18.0633C9.60675 17.7514 9.60401 17.2382 9.92387 16.9184L12.4942 14.3481L12.8477 13.9945L12.4942 13.641L9.92387 11.0707L9.92197 11.0688C9.60675 10.7569 9.60401 10.2437 9.92387 9.92387ZM22.3969 5.60311C20.1699 3.37611 17.1494 2.125 14 2.125C10.8506 2.125 7.8301 3.37611 5.60311 5.60311C3.37611 7.8301 2.125 10.8506 2.125 14C2.125 17.1494 3.37611 20.1699 5.60311 22.3969C7.8301 24.6239 10.8506 25.875 14 25.875C17.1494 25.875 20.1699 24.6239 22.3969 22.3969C24.6239 20.1699 25.875 17.1494 25.875 14C25.875 10.8506 24.6239 7.8301 22.3969 5.60311ZM23.5459 23.5459C21.0142 26.0777 17.5804 27.5 14 27.5C10.4196 27.5 6.9858 26.0777 4.45406 23.5459C1.92232 21.0142 0.5 17.5804 0.5 14C0.5 10.4196 1.92232 6.9858 4.45406 4.45406C6.9858 1.92232 10.4196 0.5 14 0.5C17.5804 0.5 21.0142 1.92232 23.5459 4.45406C26.0777 6.9858 27.5 10.4196 27.5 14C27.5 17.5804 26.0777 21.0142 23.5459 23.5459Z" fill="#215E02" stroke="#215E02"/>
</svg>
