<svg width="28" height="28" viewBox="0 0 28 28" fill="none" xmlns="http://www.w3.org/2000/svg">
<path d="M27.9927 13.9727C27.9927 14.957 27.2634 15.7281 26.437 15.7281V15.7281C25.5788 15.7281 24.884 16.4256 24.8873 17.2838L24.9153 24.4891C24.9153 24.6367 24.9056 24.7844 24.891 24.932V25.8125C24.891 27.0211 24.0208 28 22.9464 28H22.1686V28C22.0617 28 21.9545 27.9996 21.8477 27.9999C21.8331 28 21.8185 28 21.8039 28H20.2239H19.0572C17.9828 28 17.1126 27.0211 17.1126 25.8125V24.5V21C17.1126 20.032 16.4174 19.25 15.5569 19.25H12.4455C11.585 19.25 10.8898 20.032 10.8898 21V24.5V25.8125C10.8898 27.0211 10.0196 28 8.94521 28H7.77844H6.22761C6.21306 28 6.1985 27.9998 6.18395 27.9994C6.06725 27.9962 5.95057 28 5.83383 28V28H5.05599C3.98159 28 3.11138 27.0211 3.11138 25.8125V19.6875C3.11138 19.6383 3.11138 19.5836 3.11624 19.5344V17.2887C3.11624 16.4268 2.41756 15.7281 1.55569 15.7281V15.7281C0.680613 15.7281 0 14.9625 0 13.9727C0 13.4805 0.145846 13.043 0.486152 12.6602L12.9511 0.4375C13.2914 0.0546875 13.6803 0 14.0206 0C14.3609 0 14.7499 0.109375 15.0416 0.382812L27.4579 12.6602C27.8468 13.043 28.0413 13.4805 27.9927 13.9727Z" fill="#215E02"/>
</svg>
