<svg width="28" height="29" viewBox="0 0 28 29" fill="none" xmlns="http://www.w3.org/2000/svg">
<path d="M19.25 4.8125H22.75C23.718 4.8125 24.5 5.70625 24.5 6.8125V22.8125C24.5 23.9187 23.718 24.8125 22.75 24.8125H19.25C18.282 24.8125 17.5 25.7062 17.5 26.8125C17.5 27.9187 18.282 28.8125 19.25 28.8125H22.75C25.6484 28.8125 28 26.125 28 22.8125V6.8125C28 3.5 25.6484 0.8125 22.75 0.8125H19.25C18.282 0.8125 17.5 1.70625 17.5 2.8125C17.5 3.91875 18.282 4.8125 19.25 4.8125ZM18.7359 16.225C19.4195 15.4438 19.4195 14.175 18.7359 13.3937L11.7359 5.39375C11.0523 4.6125 9.94219 4.6125 9.25859 5.39375C8.575 6.175 8.575 7.44375 9.25859 8.225L13.2727 12.8125H1.75C0.782031 12.8125 0 13.7062 0 14.8125C0 15.9187 0.782031 16.8125 1.75 16.8125H13.2727L9.25859 21.4C8.575 22.1812 8.575 23.45 9.25859 24.2313C9.94219 25.0125 11.0523 25.0125 11.7359 24.2313L18.7359 16.2313V16.225Z" fill="#215E02"/>
</svg>
