<svg width="26" height="26" viewBox="0 0 26 26" fill="none" xmlns="http://www.w3.org/2000/svg">
<path d="M13 26C20.1679 26 26 21.0762 26 15.0247C26 10.4288 22.633 6.49 17.875 4.85742V7.90719C19.3552 8.62871 20.5848 9.66608 21.4404 10.9153C22.2961 12.1645 22.7477 13.5817 22.75 15.0247C22.75 19.5644 18.3771 23.2562 13 23.2562C7.62287 23.2562 3.25 19.5644 3.25 15.0247C3.25216 13.5816 3.7037 12.1644 4.55934 10.9152C5.41499 9.66595 6.64465 8.6286 8.125 7.90719V4.85742C3.367 6.49 0 10.4288 0 15.0247C0 21.0762 5.83213 26 13 26Z" fill="#215E02"/>
<path d="M11.0001 0H14.2501V13.7192H11.0001V0Z" fill="#215E02"/>
</svg>
